<svg width="1172" height="361" viewBox="0 0 1172 361" fill="none" xmlns="http://www.w3.org/2000/svg">
<path d="M404.006 7.4428C389.206 25.9761 365.339 33.3095 329.606 30.5095C310.673 29.0428 308.806 28.7761 236.939 16.6428C182.939 7.4428 158.139 5.4428 126.539 7.57613C83.6061 10.5095 52.0061 22.1095 27.4727 43.9761C18.4061 51.9761 9.20605 66.5095 4.67272 79.9761C0.272719 93.1761 -1.32728 115.843 1.20605 127.976C6.40605 151.843 28.0061 175.843 52.0061 184.109C63.2061 188.109 84.8061 188.376 96.2727 184.776C110.539 180.376 115.873 172.376 108.539 166.643C103.606 162.776 101.339 163.043 90.4061 168.776C81.0727 173.709 80.4061 173.843 66.8061 173.843C53.7394 173.843 52.0061 173.576 44.8061 169.843C25.3394 159.976 13.7394 143.176 10.4061 119.976C8.27272 104.376 10.4061 91.7095 17.8727 76.5095C28.0061 55.9761 46.6727 40.9095 73.3394 31.5761L86.0061 27.1761H119.339C153.606 27.3095 157.339 27.7095 182.539 34.5095L188.006 35.9761V167.576C187.873 239.976 187.339 307.443 186.806 317.443C185.206 341.976 183.473 345.043 168.006 349.443C163.473 350.776 161.873 351.843 161.606 354.109L161.206 357.176H206.539H252.006V353.309C252.006 349.843 251.606 349.443 246.139 348.909C238.673 347.976 232.273 343.443 229.739 337.309C226.673 330.109 225.473 279.309 225.339 154.109C225.339 72.2428 225.739 45.1761 226.939 45.1761C227.739 45.1761 243.473 48.3761 261.873 52.1095L295.339 59.1761H320.673C340.939 59.1761 347.739 58.6428 354.673 56.7761C366.406 53.5761 383.339 45.1761 390.939 38.7761C405.206 26.7761 419.339 5.8428 415.873 1.70946C413.073 -1.62387 410.139 -0.290538 404.006 7.4428Z" fill="white"/>
<path d="M686.673 83.0427C672.673 87.3094 668.539 89.3094 659.073 96.376C649.206 103.843 638.406 117.709 634.539 127.843C630.806 137.976 629.873 154.109 632.539 166.509C635.339 179.976 640.406 189.709 649.206 199.043C661.873 212.376 673.206 219.043 708.406 233.709C719.473 238.376 731.073 243.309 734.006 244.509C743.206 248.376 757.606 257.309 763.473 262.776C766.406 265.576 770.939 271.576 773.473 276.109C777.739 284.109 778.006 285.176 778.006 297.843C778.006 309.976 777.606 311.976 774.006 319.176C768.673 329.976 759.473 338.776 747.073 344.643C737.606 349.309 735.873 349.576 721.473 350.243C694.939 351.309 679.606 347.043 663.739 333.976C648.939 321.976 637.073 304.243 630.806 284.909C625.739 269.709 620.673 268.909 622.006 283.576C622.539 288.509 623.339 301.443 623.873 312.376L624.806 332.243L628.806 335.443C639.339 343.976 667.473 355.443 684.673 358.376C698.673 360.776 718.939 361.443 731.339 360.109C745.073 358.509 763.339 352.376 772.939 346.109C783.473 339.309 795.073 326.376 800.939 314.909C807.739 301.843 809.473 294.643 809.473 279.843C809.473 263.176 806.406 252.243 798.139 239.176C785.206 219.176 765.606 207.176 708.673 184.909C696.406 180.109 678.939 170.376 672.806 165.043C669.073 161.843 665.073 156.243 662.406 150.909C647.073 119.709 673.206 89.3094 715.339 89.176C746.939 89.176 770.139 106.776 781.339 139.309C784.406 147.976 786.139 150.509 789.073 150.509C790.806 150.509 790.939 148.376 790.139 134.776C789.739 126.243 788.939 114.509 788.406 108.776L787.606 98.376L778.806 93.976C752.539 80.6427 710.673 75.7094 686.673 83.0427Z" fill="white"/>
<path d="M920.006 81.1762C904.673 83.8428 887.073 93.0428 876.406 104.109C851.339 129.843 851.073 173.71 875.873 199.576C885.606 209.71 898.673 217.576 922.539 227.843C958.273 243.176 962.806 245.309 973.739 251.576C986.273 258.643 996.139 268.11 1000.81 277.576C1003.87 283.443 1004.41 286.243 1004.54 297.843C1004.67 309.976 1004.27 311.843 1000.94 318.91C993.606 333.576 976.539 346.11 959.206 349.31C954.806 350.11 944.139 350.51 935.339 350.243C921.606 349.71 918.139 349.043 910.673 345.976C886.139 335.443 869.073 316.243 857.873 286.643C853.873 275.843 850.673 271.443 848.539 273.576C848.006 274.11 848.539 286.91 849.739 302.11C851.473 324.376 852.273 330.376 854.273 333.043C857.606 337.71 886.006 351.843 899.339 355.443C922.139 361.71 953.339 362.643 972.406 357.71C991.473 352.776 1011.07 339.31 1023.07 322.776C1032.27 310.11 1038.01 286.776 1035.87 270.91C1030.94 235.443 1009.47 214.643 956.673 193.843C934.939 185.31 910.006 173.043 902.139 166.91C880.406 150.11 878.539 121.976 897.873 104.109C916.006 87.3095 951.606 84.5095 977.073 97.7095C983.473 101.043 995.073 113.176 999.606 121.31C1001.87 125.31 1005.61 133.443 1008.01 139.576C1012.54 151.176 1014.01 153.043 1016.41 150.643C1018.67 148.376 1015.07 102.509 1012.27 99.4428C1006.41 92.7762 985.206 84.5095 966.673 81.7095C953.206 79.7095 930.006 79.4428 920.006 81.1762Z" fill="white"/>
<path d="M374.939 86.7761C375.206 89.1761 376.939 90.3761 382.539 92.1095C386.539 93.4428 391.606 96.1095 393.606 98.1095L397.473 101.709L397.073 219.843C396.673 353.443 397.606 343.043 385.739 347.176C376.406 350.376 375.339 351.176 374.939 354.376L374.539 357.176H471.206C524.406 357.176 568.006 356.776 568.006 356.109C568.006 355.576 569.473 343.843 571.339 329.976C573.073 316.109 574.273 304.243 573.873 303.709C573.473 303.043 572.139 302.509 570.806 302.509C569.073 302.509 566.939 305.843 563.339 313.976C556.673 329.043 548.006 338.643 537.606 342.643C530.406 345.443 527.473 345.576 483.606 346.243L437.339 346.776L437.606 282.376L438.006 217.843H468.006C496.539 217.843 498.273 217.976 503.739 220.909C510.406 224.376 515.206 231.576 517.739 241.443C518.806 245.843 520.273 248.643 521.606 248.909C524.673 249.443 525.739 235.309 525.073 202.509C524.806 183.176 524.139 175.443 522.939 174.243C520.539 171.976 518.006 175.443 516.806 182.376C515.606 189.843 508.406 199.843 501.473 203.443C495.873 206.376 494.273 206.509 466.406 206.509H437.339V150.376V94.2428L483.739 94.7761C525.339 95.1761 530.539 95.4428 534.939 97.7095C544.273 102.243 550.406 109.176 555.339 120.376C560.273 132.109 563.206 135.843 565.339 133.709C566.406 132.643 566.006 125.309 564.006 109.309C562.539 96.6428 560.939 85.7095 560.539 85.0428C560.139 84.3761 520.806 83.8428 467.206 83.8428H374.539L374.939 86.7761Z" fill="white"/>
<path d="M1088.67 84.776C1087.21 85.176 1085.47 85.976 1084.81 86.6427C1082.94 88.376 1086.54 91.8427 1090.27 91.8427C1096.01 91.8427 1102.27 95.7093 1104.81 100.909C1107.07 105.576 1107.21 113.043 1107.34 219.176C1107.34 327.309 1107.21 332.776 1104.81 337.576C1101.87 343.576 1097.34 347.043 1089.74 349.043C1084.81 350.376 1082.67 352.509 1082.67 355.976C1082.67 357.309 1139.87 357.576 1158.54 356.243C1167.47 355.709 1171.07 354.909 1171.61 353.443C1172.54 351.043 1169.74 349.176 1165.07 349.176C1159.74 349.176 1151.07 340.909 1149.21 333.976C1145.87 321.843 1146.94 106.509 1150.27 100.376C1152.54 96.376 1158.01 93.176 1164.41 92.1093C1169.21 91.3093 1170.01 90.6427 1170.41 87.4427L1170.81 83.8427L1131.07 83.976C1109.21 84.1093 1090.14 84.376 1088.67 84.776Z" fill="white"/>
</svg>
